<svg width="256" height="256" viewBox="0 0 256 256" fill="none" xmlns="http://www.w3.org/2000/svg">
<rect width="256" height="256" rx="128" fill="#FF5C0B"/>
<path d="M120.75 84.5C128.758 84.5 135.25 78.0081 135.25 70C135.25 61.9919 128.758 55.5 120.75 55.5C112.742 55.5 106.25 61.9919 106.25 70C106.25 78.0081 112.742 84.5 120.75 84.5Z" fill="white" stroke="white" stroke-width="13.3163" stroke-linecap="round" stroke-linejoin="round"/>
<path d="M171.5 113.5C179.508 113.5 186 107.008 186 99C186 90.9919 179.508 84.5 171.5 84.5C163.492 84.5 157 90.9919 157 99C157 107.008 163.492 113.5 171.5 113.5Z" fill="white" stroke="white" stroke-width="13.3163" stroke-linecap="round" stroke-linejoin="round"/>
<path d="M186 171.5C194.008 171.5 200.5 165.008 200.5 157C200.5 148.992 194.008 142.5 186 142.5C177.992 142.5 171.5 148.992 171.5 157C171.5 165.008 177.992 171.5 186 171.5Z" fill="white" stroke="white" stroke-width="13.3163" stroke-linecap="round" stroke-linejoin="round"/>
<path d="M106.248 113.5C111.008 113.5 115.722 114.438 120.12 116.259C124.518 118.081 128.514 120.751 131.88 124.117C135.246 127.484 137.917 131.48 139.738 135.878C141.56 140.276 142.498 144.99 142.498 149.75V175.125C142.496 181.189 140.322 187.052 136.37 191.652C132.418 196.252 126.95 199.285 120.955 200.201C114.96 201.117 108.836 199.855 103.691 196.645C98.5455 193.435 94.7203 188.488 92.9077 182.701C89.8144 172.72 83.2894 166.183 73.3327 163.09C67.5485 161.278 62.6039 157.456 59.3936 152.315C56.1832 147.174 54.9193 141.053 55.8304 135.061C56.7415 129.068 59.7675 123.6 64.3609 119.645C68.9542 115.69 74.8115 113.511 80.8727 113.5H106.248Z" fill="white" stroke="white" stroke-width="13.3163" stroke-linecap="round" stroke-linejoin="round"/>
</svg>
