<svg width="256" height="256" viewBox="0 0 256 256" fill="none" xmlns="http://www.w3.org/2000/svg">
<rect width="256" height="256" rx="128" fill="#FF313C"/>
<path d="M121.958 89.2507C129.184 89.2507 135.042 83.393 135.042 76.1673C135.042 68.9416 129.184 63.084 121.958 63.084C114.733 63.084 108.875 68.9416 108.875 76.1673C108.875 83.393 114.733 89.2507 121.958 89.2507Z" fill="white" stroke="white" stroke-width="12.0153" stroke-linecap="round" stroke-linejoin="round"/>
<path d="M167.75 115.417C174.976 115.417 180.834 109.559 180.834 102.333C180.834 95.1076 174.976 89.25 167.75 89.25C160.525 89.25 154.667 95.1076 154.667 102.333C154.667 109.559 160.525 115.417 167.75 115.417Z" fill="white" stroke="white" stroke-width="12.0153" stroke-linecap="round" stroke-linejoin="round"/>
<path d="M180.833 167.751C188.059 167.751 193.917 161.893 193.917 154.667C193.917 147.442 188.059 141.584 180.833 141.584C173.608 141.584 167.75 147.442 167.75 154.667C167.75 161.893 173.608 167.751 180.833 167.751Z" fill="white" stroke="white" stroke-width="12.0153" stroke-linecap="round" stroke-linejoin="round"/>
<path d="M108.873 115.416C113.168 115.416 117.422 116.262 121.39 117.906C125.358 119.55 128.964 121.959 132.001 124.996C135.039 128.033 137.448 131.639 139.092 135.607C140.735 139.576 141.581 143.829 141.581 148.124V171.02C141.58 176.492 139.618 181.782 136.052 185.933C132.487 190.083 127.552 192.82 122.143 193.646C116.734 194.472 111.208 193.334 106.566 190.438C101.923 187.541 98.4719 183.078 96.8364 177.856C94.0452 168.851 88.1578 162.952 79.1739 160.161C73.9548 158.526 69.4933 155.078 66.5966 150.439C63.6999 145.8 62.5594 140.277 63.3815 134.87C64.2036 129.463 66.934 124.529 71.0786 120.961C75.2232 117.392 80.5082 115.426 85.9772 115.416H108.873Z" fill="white" stroke="white" stroke-width="12.0153" stroke-linecap="round" stroke-linejoin="round"/>
</svg>
